<?xml version="1.0" encoding="utf-8"?>
<!-- Generator: Adobe Illustrator 27.5.0, SVG Export Plug-In . SVG Version: 6.00 Build 0)  -->
<svg version="1.1" xmlns="http://www.w3.org/2000/svg" xmlns:xlink="http://www.w3.org/1999/xlink" x="0px" y="0px"
	 viewBox="0 0 2200 2200" style="enable-background:new 0 0 2200 2200;" xml:space="preserve">
<g id="Objects">
	<path style="fill:#d2d2d2ee;" d="M1926.223,672.899c-96.909-74.175-192.659-56.785-262.535-22.698
		c11.687-11.239,24.093-22.4,36.93-33.359c-9.45-3.045-19.057-6.826-28.805-11.327c15.284-0.886,30.612-2,44.712-6.949
		c0.351-0.132,0.711-0.254,1.07-0.395c6.975-2.597,13.442-6.37,19.294-10.967c6.256-4.922,12.538-9.757,18.82-14.521
		c-16.223-4.15-32.516-9.757-48.775-16.793c20.549-0.158,41.211-0.57,61.269-4.975c2.562-0.562,5.106-1.184,7.633-1.869
		c12.924-3.501,25.067-9.388,36.07-17.013c4.299-2.974,8.537-5.896,12.722-8.748c-20.022-8.221-39.799-18.75-59.119-31.481
		c21.909,3.668,43.993,7.107,66.165,6.186c0.149-0.009,0.298-0.018,0.448-0.018c21.417-0.948,42.194-7.581,60.365-18.934
		c24.067-15.021,39.246-23.769,39.246-23.769c-40.878-21.268-112.263-37.263-176.05-24.225
		c-117.475,24.006-163.214,108.841-180.446,181.718c-7.081-74.544-40.773-164.846-153.852-204.715
		c-61.4-21.654-134.303-15.591-177.708-0.114c0,0,13.837,10.739,35.614,28.919c16.46,13.731,36.131,23.146,57.207,27.015
		c0.149,0.026,0.298,0.053,0.447,0.079c21.838,3.957,44.177,3.571,66.384,2.931c-20.882,9.976-41.913,17.697-62.865,23.093
		c3.746,3.404,7.554,6.87,11.397,10.406c9.853,9.063,21.084,16.557,33.403,21.795c2.413,1.027,4.843,1.983,7.309,2.895
		c19.259,7.107,39.667,10.345,60.005,13.328c-17.074,4.738-33.982,8.055-50.617,9.95c5.572,5.58,11.134,11.231,16.662,16.96
		c5.159,5.352,11.047,9.985,17.601,13.512c0.342,0.184,0.684,0.36,1.009,0.526c13.284,6.844,28.323,10.037,43.335,13.012
		c-10.266,3.132-20.303,5.554-30.077,7.282c11.213,12.608,21.979,25.366,32.008,38.097c-64.55-43.335-157.01-73.675-263.167-13.468
		c-60.26,34.166-106.297,96.926-124.178,142.569c0,0,18.285-3.597,48.081-8.397c22.514-3.615,43.809-12.828,61.629-27.05
		c0.132-0.096,0.255-0.202,0.377-0.298c18.425-14.775,33.718-32.981,48.713-51.249c-6.58,23.725-15.065,46.002-25.365,66.595
		c5.343-0.641,10.792-1.272,16.319-1.886c14.153-1.579,28.007-5.361,40.817-11.59c2.51-1.22,4.975-2.509,7.423-3.852
		c19.154-10.494,36.008-24.62,52.6-38.86c-8.116,17.013-17.259,32.902-27.357,47.573c8.37-0.579,16.793-1.088,25.251-1.527
		c7.905-0.404,15.732-1.904,23.137-4.694c0.386-0.149,0.763-0.298,1.132-0.447c14.767-5.887,27.831-15.723,40.703-25.699
		c-4.659,10.424-9.713,20.18-15.161,29.226c15.846-0.167,31.542,0.018,46.853,0.649c-76.264,19.408-162.933,68.806-187.693,190.975
		c-13.766,67.884,3.369,143.814,26.076,187.263c0,0,9.274-16.162,25.216-41.791c12.047-19.355,19.066-41.475,20.04-64.252
		c0.009-0.167,0.009-0.325,0.018-0.483c0.948-23.593-2.746-47.081-6.695-70.385c13.582,20.531,24.822,41.554,33.596,62.839
		c3.036-4.448,6.124-8.967,9.292-13.547c8.098-11.713,14.337-24.655,18.039-38.404c0.728-2.694,1.377-5.405,1.965-8.134
		c4.659-21.338,5.063-43.326,5.203-65.191c7.511,17.294,13.503,34.613,17.943,51.872c5.054-6.695,10.196-13.389,15.416-20.057
		c4.878-6.229,8.888-13.117,11.643-20.54c0.14-0.386,0.281-0.772,0.412-1.149c5.247-15.003,6.405-31.314,7.318-47.573
		c4.808,10.353,8.844,20.575,12.108,30.621c26.181-30.768,53.457-59.246,80.364-81.718c-10.51,51.619-18.6,103.876-25.38,156.008
		c-25.133,196.57,3.748,809.141-87.214,864.34h258.891c-79.3-45.092-84.257-369.605-95.647-551.63
		c-6.172-102.316-9.277-204.905-6.885-307.384c1.352-56.555,4.256-113.608,10.25-169.92c27.898,27.885,55.394,65.037,80.952,105.115
		c4.598-9.502,10.002-19.066,16.179-28.673c-1.316,16.232-2.404,32.552,0.737,48.134c0.079,0.395,0.167,0.79,0.255,1.193
		c1.702,7.73,4.738,15.1,8.713,21.944c4.264,7.309,8.432,14.644,12.529,21.97c6.765-16.477,15.074-32.823,24.874-48.915
		c-2.851,21.672-5.466,43.51-3.781,65.287c0.219,2.781,0.491,5.554,0.842,8.318c1.781,14.135,6.194,27.805,12.608,40.518
		c2.51,4.966,4.957,9.871,7.344,14.696c11.617-19.891,25.62-39.176,41.887-57.654c-7.098,22.54-13.977,45.309-16.267,68.806
		c-0.018,0.158-0.035,0.316-0.053,0.483c-2.158,22.698,1.772,45.563,11.046,66.393c12.284,27.568,19.268,44.853,19.268,44.853
		c28.437-39.939,55.811-112.798,51.477-181.929c-7.792-124.345-86.801-185.14-159.652-214.84
		c14.802,1.465,29.893,3.378,45.081,5.642c-4.15-9.713-7.826-20.066-11.011-31.025c11.38,11.643,22.979,23.172,36.798,31.034
		c0.342,0.193,0.702,0.395,1.062,0.588c6.958,3.782,14.503,6.335,22.277,7.826c8.318,1.588,16.592,3.255,24.804,4.975
		c-8.002-15.925-14.872-32.92-20.584-50.88c14.477,16.381,29.244,32.674,46.774,45.704c2.246,1.658,4.519,3.273,6.835,4.826
		c11.827,7.932,25.041,13.573,38.842,17.074c5.387,1.369,10.696,2.737,15.907,4.106c-7.388-21.812-12.74-45.037-16.013-69.446
		c12.354,20.154,25.015,40.281,41.238,57.435c0.114,0.123,0.219,0.237,0.333,0.351c15.706,16.53,35.543,28.577,57.347,35.245
		c28.858,8.827,46.476,14.898,46.476,14.898C2018.245,783.478,1981.236,714.997,1926.223,672.899z"/>
	<path style="fill:#d2d2d2ee;" d="M882.87,654.101c-107.623-35.654-185.084,12.357-233.54,63.99
		c29.308-64.452,44.22-154.359-29.711-240.311c-40.141-46.676-102.768-76.045-145.646-83.801c0,0,6.286,15.323,15.577,40.486
		c7.027,19.011,18.721,35.996,34.177,49.096c0.11,0.092,0.22,0.184,0.33,0.276c16.041,13.531,34.538,23.737,53.046,33.672
		c-21.82-1.657-42.7-5.233-62.42-10.679c1.468,4.556,2.958,9.191,4.443,13.9c3.809,12.072,9.487,23.506,17.12,33.603
		c1.495,1.978,3.037,3.907,4.628,5.817c12.442,14.899,27.65,27.166,42.919,39.192c-16.231-4.158-31.655-9.403-46.187-15.685
		c1.939,7.2,3.839,14.452,5.672,21.754c1.709,6.818,4.354,13.39,8.066,19.369c0.194,0.312,0.392,0.617,0.579,0.907
		c7.668,11.868,18.493,21.57,29.4,31.08c-9.892-2.267-19.262-5.01-28.09-8.197c3.255,15.619,6.072,31.15,8.297,46.311
		c-32.511-65.935-94.026-134.363-209.421-135.004c-65.499-0.373-132.807,29.398-168.966,58.396c0,0,16.686,5.664,43.376,15.764
		c20.162,7.641,41.96,10.119,63.27,6.852c0.153-0.017,0.304-0.046,0.45-0.067c22.066-3.435,43.181-11.158,64.079-19.072
		c-16.571,16.352-34.02,30.62-52.165,42.651c4.683,1.992,9.447,4.04,14.269,6.141c12.347,5.371,25.487,8.797,38.924,9.723
		c2.632,0.182,5.261,0.286,7.9,0.338c20.647,0.419,41.119-3.224,61.43-7.084c-14.668,10.126-29.648,18.847-44.838,26.117
		c7.136,3.468,14.281,7.018,21.422,10.643c6.672,3.393,13.795,5.849,21.181,7.05c0.387,0.06,0.766,0.115,1.139,0.166
		c14.88,2.129,30.224,0.219,45.476-1.898c-8.73,6.351-17.469,11.97-26.197,16.82c13.07,7.327,25.853,14.872,38.108,22.602
		c-71.669-20.011-165.995-20.336-243.842,68.165c-43.263,49.172-64.98,119.497-66.829,165.816c0,0,15.216-8.882,40.359-22.385
		c18.994-10.195,35.168-25.023,46.695-43.239c0.086-0.133,0.16-0.262,0.242-0.387c11.89-18.897,19.926-39.894,27.665-60.86
		c1.465,23.231,0.777,45.761-2.055,67.345c4.584-2.217,9.245-4.467,13.999-6.73c12.157-5.789,23.368-13.461,32.88-22.989
		c1.866-1.865,3.675-3.782,5.443-5.743c13.871-15.3,24.559-33.137,34.973-50.998c-1.988,17.716-5.233,34.739-9.723,50.98
		c7.297-3.108,14.666-6.175,22.087-9.183c6.934-2.81,13.466-6.568,19.221-11.356c0.297-0.25,0.594-0.501,0.88-0.748
		c11.369-9.83,20.002-22.657,28.408-35.557c-0.935,10.753-2.44,21.035-4.497,30.809c31.007-11.119,61.881-20.457,90.727-26.506
		c-32.867,35.982-60.684,76.577-82.038,120.268c-198.519,406.168,91.119,788.799-5.917,844.299h333.746
		c-144.084-27.933-180.76-140.672-214.792-214.875c-77.264-168.697-124.445-362.192-75.024-545.267
		c5.21-19.471,11.822-39.291,19.297-58.016c20.223-50.618,48.219-98.664,84.059-139.868c11.489,37.685,17.254,84.731,19.511,133.536
		c8.245-5.625,17.181-10.92,26.771-15.888c-8.725,12.688-17.304,25.556-22.069,39.811c-0.121,0.361-0.235,0.726-0.353,1.098
		c-2.245,7.139-3.228,14.612-3.193,22.095c0.053,8.001,0.015,15.978-0.076,23.915c13.308-10.323,27.82-19.811,43.435-28.388
		c-12.546,16.425-24.977,33.098-33.853,51.746c-1.13,2.384-2.213,4.785-3.227,7.216c-5.198,12.428-8.018,25.714-8.748,39.159
		c-0.282,5.254-0.585,10.428-0.902,15.509c18.894-10.836,39.459-20.052,61.5-27.539c-16.437,15.137-32.802,30.564-45.747,48.75
		c-0.089,0.121-0.177,0.242-0.27,0.371c-12.461,17.593-20.009,38.191-22.217,59.637c-2.914,28.388-5.33,45.849-5.33,45.849
		c42.128-19.351,98.891-66.192,127.901-124.912c52.183-105.618,16.042-192.679-29.697-251.345
		c11.445,8.174,22.917,16.85,34.303,25.86c1.173-9.918,3.035-20.138,5.586-30.623c3.846,14.906,7.925,29.822,15.552,42.777
		c0.19,0.319,0.389,0.654,0.593,0.982c3.923,6.378,8.907,12.025,14.578,16.91c6.071,5.22,12.07,10.484,17.993,15.763
		c0.941-16.826,3.313-33.996,7.09-51.411c4.153,20.25,8.585,40.564,16.821,59.504c1.06,2.418,2.163,4.812,3.331,7.176
		c5.961,12.074,14.137,22.924,23.803,32.295c3.772,3.66,7.48,7.282,11.108,10.86c4.217-21.363,10.769-42.926,19.583-64.48
		c0.635,22.343,1.535,44.809,6.756,66.514c0.036,0.154,0.068,0.297,0.108,0.445c5.09,20.951,15.68,40.172,30.416,55.909
		c19.502,20.83,31.087,34.107,31.087,34.107c13.055-44.473,14.97-118.052-10.305-178.48
		C864.255,826.261,777.56,795.417,704.214,790.45c14.876-3.71,30.305-7.016,45.991-9.955c-6.313-6.947-12.409-14.573-18.281-22.855
		c12.949,6.473,26.041,12.78,39.932,15.364c0.35,0.057,0.703,0.126,1.064,0.18c6.942,1.156,14.021,1.109,20.985,0.096
		c7.448-1.089,14.875-2.093,22.27-3.04c-11.346-11.044-22.064-23.316-32.079-36.743c16.922,9.55,34.057,18.945,52.576,24.781
		c2.365,0.746,4.745,1.434,7.139,2.063c12.245,3.218,24.974,4.111,37.587,3.042c4.926-0.414,9.777-0.813,14.551-1.179
		c-12.543-16.172-23.798-34.12-33.642-53.658c16.235,13.327,32.721,26.549,51.333,36.238c0.126,0.063,0.253,0.126,0.375,0.196
		c18.006,9.311,38.165,13.66,58.411,12.911c26.808-0.979,43.373-1.001,43.373-1.001C992.302,720.197,941.309,673.458,882.87,654.101
		z"/>
</g>
</svg>
